<svg id="erZTHEMYmxX1" xmlns="http://www.w3.org/2000/svg" xmlns:xlink="http://www.w3.org/1999/xlink" viewBox="0 0 300 300" shape-rendering="geometricPrecision" text-rendering="geometricPrecision"><g transform="matrix(3 0 0 3 0-223.472856)"><rect width="100" height="31.977253" rx="0" ry="0" transform="matrix(1 0 0 0.797725 0 74.490952)" fill="#472a0b" stroke-width="0"/><g transform="matrix(.713825 0.354864-.354864 0.713825 84.387107 17.999938)"><polygon points="1.413359,0.507316 1.587893,1.54639 0.061533,3.149474 -1.500407,2.065134 -1.293246,-0.27407 1.413359,0.507316" transform="matrix(-.088872 0.529095-.529095-.088872 17.427831 84.669965)" fill="#291806" stroke-width="0"/><polygon points="0.337536,0.053587 0.341955,1.018234 -0.442857,1.428564 -1.500407,2.065134 -1.293246,-0.27407 0.337536,0.053587" transform="matrix(-.869686 0.493606-.493606-.869686 19.022941 84.302615)" fill="#291806" stroke-width="0"/><polygon points="-0.031124,-0.523599 1.515135,-0.197911 0.31074,1.924118 -1.500407,2.065134 -1.293246,-0.27407 -0.031124,-0.523599" transform="matrix(-.869686 0.493606-.493606-.869686 16.781758 82.432678)" fill="#291806" stroke-width="0"/></g><g transform="matrix(.819868-.572552 0.572552 0.819868-34.355914 23.943658)"><polygon points="1.413359,0.507316 1.587893,1.54639 0.061533,3.149474 -1.500407,2.065134 -1.293246,-0.27407 1.413359,0.507316" transform="matrix(-.088872 0.529095-.529095-.088872 17.427831 84.669965)" fill="#291806" stroke-width="0"/><polygon points="0.337536,0.053587 0.341955,1.018234 -0.442857,1.428564 -1.500407,2.065134 -1.293246,-0.27407 0.337536,0.053587" transform="matrix(-.869686 0.493606-.493606-.869686 19.022941 84.302615)" fill="#291806" stroke-width="0"/><polygon points="-0.031124,-0.523599 1.515135,-0.197911 0.31074,1.924118 -1.500407,2.065134 -1.293246,-0.27407 -0.031124,-0.523599" transform="matrix(-.869686 0.493606-.493606-.869686 16.781758 82.432678)" fill="#291806" stroke-width="0"/></g><g transform="translate(30.471323 9.448211)"><polygon points="1.413359,0.507316 1.587893,1.54639 0.061533,3.149474 -1.500407,2.065134 -1.293246,-0.27407 1.413359,0.507316" transform="matrix(-.088872 0.529095-.529095-.088872 17.427831 84.669965)" fill="#291806" stroke-width="0"/><polygon points="0.337536,0.053587 0.341955,1.018234 -0.442857,1.428564 -1.500407,2.065134 -1.293246,-0.27407 0.337536,0.053587" transform="matrix(-.869686 0.493606-.493606-.869686 19.022941 84.302615)" fill="#291806" stroke-width="0"/><polygon points="-0.031124,-0.523599 1.515135,-0.197911 0.31074,1.924118 -1.500407,2.065134 -1.293246,-0.27407 -0.031124,-0.523599" transform="matrix(-.869686 0.493606-.493606-.869686 16.781758 82.432678)" fill="#291806" stroke-width="0"/></g><g transform="translate(67.821346 7.34943)"><polygon points="1.413359,0.507316 1.587893,1.54639 0.061533,3.149474 -1.500407,2.065134 -1.293246,-0.27407 1.413359,0.507316" transform="matrix(-.088872 0.529095-.529095-.088872 17.427831 84.669965)" fill="#291806" stroke-width="0"/><polygon points="0.337536,0.053587 0.341955,1.018234 -0.442857,1.428564 -1.500407,2.065134 -1.293246,-0.27407 0.337536,0.053587" transform="matrix(-.869686 0.493606-.493606-.869686 19.022941 84.302615)" fill="#291806" stroke-width="0"/><polygon points="-0.031124,-0.523599 1.515135,-0.197911 0.31074,1.924118 -1.500407,2.065134 -1.293246,-0.27407 -0.031124,-0.523599" transform="matrix(-.869686 0.493606-.493606-.869686 16.781758 82.432678)" fill="#291806" stroke-width="0"/></g><g transform="translate(-8.97718 4.778923)"><polygon points="1.413359,0.507316 1.587893,1.54639 0.061533,3.149474 -1.500407,2.065134 -1.293246,-0.27407 1.413359,0.507316" transform="matrix(-.088872 0.529095-.529095-.088872 17.427831 84.669965)" fill="#291806" stroke-width="0"/><polygon points="0.337536,0.053587 0.341955,1.018234 -0.442857,1.428564 -1.500407,2.065134 -1.293246,-0.27407 0.337536,0.053587" transform="matrix(-.869686 0.493606-.493606-.869686 19.022941 84.302615)" fill="#291806" stroke-width="0"/><polygon points="-0.031124,-0.523599 1.515135,-0.197911 0.31074,1.924118 -1.500407,2.065134 -1.293246,-0.27407 -0.031124,-0.523599" transform="matrix(-.869686 0.493606-.493606-.869686 16.781758 82.432678)" fill="#291806" stroke-width="0"/></g></g><g transform="matrix(3 0 0 3 0-148.981904)"><rect width="100" height="31.977253" rx="0" ry="0" transform="matrix(1 0 0 0.797725 0 74.490952)" fill="#472a0b" stroke-width="0"/><g transform="matrix(.713825 0.354864-.354864 0.713825 84.387107 17.999938)"><polygon points="1.413359,0.507316 1.587893,1.54639 0.061533,3.149474 -1.500407,2.065134 -1.293246,-0.27407 1.413359,0.507316" transform="matrix(-.088872 0.529095-.529095-.088872 17.427831 84.669965)" fill="#291806" stroke-width="0"/><polygon points="0.337536,0.053587 0.341955,1.018234 -0.442857,1.428564 -1.500407,2.065134 -1.293246,-0.27407 0.337536,0.053587" transform="matrix(-.869686 0.493606-.493606-.869686 19.022941 84.302615)" fill="#291806" stroke-width="0"/><polygon points="-0.031124,-0.523599 1.515135,-0.197911 0.31074,1.924118 -1.500407,2.065134 -1.293246,-0.27407 -0.031124,-0.523599" transform="matrix(-.869686 0.493606-.493606-.869686 16.781758 82.432678)" fill="#291806" stroke-width="0"/></g><g transform="matrix(.819868-.572552 0.572552 0.819868-34.355914 23.943658)"><polygon points="1.413359,0.507316 1.587893,1.54639 0.061533,3.149474 -1.500407,2.065134 -1.293246,-0.27407 1.413359,0.507316" transform="matrix(-.088872 0.529095-.529095-.088872 17.427831 84.669965)" fill="#291806" stroke-width="0"/><polygon points="0.337536,0.053587 0.341955,1.018234 -0.442857,1.428564 -1.500407,2.065134 -1.293246,-0.27407 0.337536,0.053587" transform="matrix(-.869686 0.493606-.493606-.869686 19.022941 84.302615)" fill="#291806" stroke-width="0"/><polygon points="-0.031124,-0.523599 1.515135,-0.197911 0.31074,1.924118 -1.500407,2.065134 -1.293246,-0.27407 -0.031124,-0.523599" transform="matrix(-.869686 0.493606-.493606-.869686 16.781758 82.432678)" fill="#291806" stroke-width="0"/></g><g transform="translate(30.471323 9.448211)"><polygon points="1.413359,0.507316 1.587893,1.54639 0.061533,3.149474 -1.500407,2.065134 -1.293246,-0.27407 1.413359,0.507316" transform="matrix(-.088872 0.529095-.529095-.088872 17.427831 84.669965)" fill="#291806" stroke-width="0"/><polygon points="0.337536,0.053587 0.341955,1.018234 -0.442857,1.428564 -1.500407,2.065134 -1.293246,-0.27407 0.337536,0.053587" transform="matrix(-.869686 0.493606-.493606-.869686 19.022941 84.302615)" fill="#291806" stroke-width="0"/><polygon points="-0.031124,-0.523599 1.515135,-0.197911 0.31074,1.924118 -1.500407,2.065134 -1.293246,-0.27407 -0.031124,-0.523599" transform="matrix(-.869686 0.493606-.493606-.869686 16.781758 82.432678)" fill="#291806" stroke-width="0"/></g><g transform="translate(67.821346 7.34943)"><polygon points="1.413359,0.507316 1.587893,1.54639 0.061533,3.149474 -1.500407,2.065134 -1.293246,-0.27407 1.413359,0.507316" transform="matrix(-.088872 0.529095-.529095-.088872 17.427831 84.669965)" fill="#291806" stroke-width="0"/><polygon points="0.337536,0.053587 0.341955,1.018234 -0.442857,1.428564 -1.500407,2.065134 -1.293246,-0.27407 0.337536,0.053587" transform="matrix(-.869686 0.493606-.493606-.869686 19.022941 84.302615)" fill="#291806" stroke-width="0"/><polygon points="-0.031124,-0.523599 1.515135,-0.197911 0.31074,1.924118 -1.500407,2.065134 -1.293246,-0.27407 -0.031124,-0.523599" transform="matrix(-.869686 0.493606-.493606-.869686 16.781758 82.432678)" fill="#291806" stroke-width="0"/></g><g transform="translate(-8.97718 4.778923)"><polygon points="1.413359,0.507316 1.587893,1.54639 0.061533,3.149474 -1.500407,2.065134 -1.293246,-0.27407 1.413359,0.507316" transform="matrix(-.088872 0.529095-.529095-.088872 17.427831 84.669965)" fill="#291806" stroke-width="0"/><polygon points="0.337536,0.053587 0.341955,1.018234 -0.442857,1.428564 -1.500407,2.065134 -1.293246,-0.27407 0.337536,0.053587" transform="matrix(-.869686 0.493606-.493606-.869686 19.022941 84.302615)" fill="#291806" stroke-width="0"/><polygon points="-0.031124,-0.523599 1.515135,-0.197911 0.31074,1.924118 -1.500407,2.065134 -1.293246,-0.27407 -0.031124,-0.523599" transform="matrix(-.869686 0.493606-.493606-.869686 16.781758 82.432678)" fill="#291806" stroke-width="0"/></g></g><g transform="matrix(3 0 0 3 0-73.472856)"><rect width="100" height="31.977253" rx="0" ry="0" transform="matrix(1 0 0 0.797725 0 74.490952)" fill="#472a0b" stroke-width="0"/><g transform="matrix(.713825 0.354864-.354864 0.713825 84.387107 17.999938)"><polygon points="1.413359,0.507316 1.587893,1.54639 0.061533,3.149474 -1.500407,2.065134 -1.293246,-0.27407 1.413359,0.507316" transform="matrix(-.088872 0.529095-.529095-.088872 17.427831 84.669965)" fill="#291806" stroke-width="0"/><polygon points="0.337536,0.053587 0.341955,1.018234 -0.442857,1.428564 -1.500407,2.065134 -1.293246,-0.27407 0.337536,0.053587" transform="matrix(-.869686 0.493606-.493606-.869686 19.022941 84.302615)" fill="#291806" stroke-width="0"/><polygon points="-0.031124,-0.523599 1.515135,-0.197911 0.31074,1.924118 -1.500407,2.065134 -1.293246,-0.27407 -0.031124,-0.523599" transform="matrix(-.869686 0.493606-.493606-.869686 16.781758 82.432678)" fill="#291806" stroke-width="0"/></g><g transform="matrix(.819868-.572552 0.572552 0.819868-34.355914 23.943658)"><polygon points="1.413359,0.507316 1.587893,1.54639 0.061533,3.149474 -1.500407,2.065134 -1.293246,-0.27407 1.413359,0.507316" transform="matrix(-.088872 0.529095-.529095-.088872 17.427831 84.669965)" fill="#291806" stroke-width="0"/><polygon points="0.337536,0.053587 0.341955,1.018234 -0.442857,1.428564 -1.500407,2.065134 -1.293246,-0.27407 0.337536,0.053587" transform="matrix(-.869686 0.493606-.493606-.869686 19.022941 84.302615)" fill="#291806" stroke-width="0"/><polygon points="-0.031124,-0.523599 1.515135,-0.197911 0.31074,1.924118 -1.500407,2.065134 -1.293246,-0.27407 -0.031124,-0.523599" transform="matrix(-.869686 0.493606-.493606-.869686 16.781758 82.432678)" fill="#291806" stroke-width="0"/></g><g transform="translate(30.471323 9.448211)"><polygon points="1.413359,0.507316 1.587893,1.54639 0.061533,3.149474 -1.500407,2.065134 -1.293246,-0.27407 1.413359,0.507316" transform="matrix(-.088872 0.529095-.529095-.088872 17.427831 84.669965)" fill="#291806" stroke-width="0"/><polygon points="0.337536,0.053587 0.341955,1.018234 -0.442857,1.428564 -1.500407,2.065134 -1.293246,-0.27407 0.337536,0.053587" transform="matrix(-.869686 0.493606-.493606-.869686 19.022941 84.302615)" fill="#291806" stroke-width="0"/><polygon points="-0.031124,-0.523599 1.515135,-0.197911 0.31074,1.924118 -1.500407,2.065134 -1.293246,-0.27407 -0.031124,-0.523599" transform="matrix(-.869686 0.493606-.493606-.869686 16.781758 82.432678)" fill="#291806" stroke-width="0"/></g><g transform="translate(67.821346 7.34943)"><polygon points="1.413359,0.507316 1.587893,1.54639 0.061533,3.149474 -1.500407,2.065134 -1.293246,-0.27407 1.413359,0.507316" transform="matrix(-.088872 0.529095-.529095-.088872 17.427831 84.669965)" fill="#291806" stroke-width="0"/><polygon points="0.337536,0.053587 0.341955,1.018234 -0.442857,1.428564 -1.500407,2.065134 -1.293246,-0.27407 0.337536,0.053587" transform="matrix(-.869686 0.493606-.493606-.869686 19.022941 84.302615)" fill="#291806" stroke-width="0"/><polygon points="-0.031124,-0.523599 1.515135,-0.197911 0.31074,1.924118 -1.500407,2.065134 -1.293246,-0.27407 -0.031124,-0.523599" transform="matrix(-.869686 0.493606-.493606-.869686 16.781758 82.432678)" fill="#291806" stroke-width="0"/></g><g transform="translate(-8.97718 4.778923)"><polygon points="1.413359,0.507316 1.587893,1.54639 0.061533,3.149474 -1.500407,2.065134 -1.293246,-0.27407 1.413359,0.507316" transform="matrix(-.088872 0.529095-.529095-.088872 17.427831 84.669965)" fill="#291806" stroke-width="0"/><polygon points="0.337536,0.053587 0.341955,1.018234 -0.442857,1.428564 -1.500407,2.065134 -1.293246,-0.27407 0.337536,0.053587" transform="matrix(-.869686 0.493606-.493606-.869686 19.022941 84.302615)" fill="#291806" stroke-width="0"/><polygon points="-0.031124,-0.523599 1.515135,-0.197911 0.31074,1.924118 -1.500407,2.065134 -1.293246,-0.27407 -0.031124,-0.523599" transform="matrix(-.869686 0.493606-.493606-.869686 16.781758 82.432678)" fill="#291806" stroke-width="0"/></g></g><g transform="matrix(3 0 0 3 0-.000024)"><rect width="100" height="31.977253" rx="0" ry="0" transform="matrix(1 0 0 0.797725 0 74.490952)" fill="#472a0b" stroke-width="0"/><g transform="matrix(.713825 0.354864-.354864 0.713825 84.387107 17.999938)"><polygon points="1.413359,0.507316 1.587893,1.54639 0.061533,3.149474 -1.500407,2.065134 -1.293246,-0.27407 1.413359,0.507316" transform="matrix(-.088872 0.529095-.529095-.088872 17.427831 84.669965)" fill="#291806" stroke-width="0"/><polygon points="0.337536,0.053587 0.341955,1.018234 -0.442857,1.428564 -1.500407,2.065134 -1.293246,-0.27407 0.337536,0.053587" transform="matrix(-.869686 0.493606-.493606-.869686 19.022941 84.302615)" fill="#291806" stroke-width="0"/><polygon points="-0.031124,-0.523599 1.515135,-0.197911 0.31074,1.924118 -1.500407,2.065134 -1.293246,-0.27407 -0.031124,-0.523599" transform="matrix(-.869686 0.493606-.493606-.869686 16.781758 82.432678)" fill="#291806" stroke-width="0"/></g><g transform="matrix(.819868-.572552 0.572552 0.819868-34.355914 23.943658)"><polygon points="1.413359,0.507316 1.587893,1.54639 0.061533,3.149474 -1.500407,2.065134 -1.293246,-0.27407 1.413359,0.507316" transform="matrix(-.088872 0.529095-.529095-.088872 17.427831 84.669965)" fill="#291806" stroke-width="0"/><polygon points="0.337536,0.053587 0.341955,1.018234 -0.442857,1.428564 -1.500407,2.065134 -1.293246,-0.27407 0.337536,0.053587" transform="matrix(-.869686 0.493606-.493606-.869686 19.022941 84.302615)" fill="#291806" stroke-width="0"/><polygon points="-0.031124,-0.523599 1.515135,-0.197911 0.31074,1.924118 -1.500407,2.065134 -1.293246,-0.27407 -0.031124,-0.523599" transform="matrix(-.869686 0.493606-.493606-.869686 16.781758 82.432678)" fill="#291806" stroke-width="0"/></g><g transform="translate(30.471323 9.448211)"><polygon points="1.413359,0.507316 1.587893,1.54639 0.061533,3.149474 -1.500407,2.065134 -1.293246,-0.27407 1.413359,0.507316" transform="matrix(-.088872 0.529095-.529095-.088872 17.427831 84.669965)" fill="#291806" stroke-width="0"/><polygon points="0.337536,0.053587 0.341955,1.018234 -0.442857,1.428564 -1.500407,2.065134 -1.293246,-0.27407 0.337536,0.053587" transform="matrix(-.869686 0.493606-.493606-.869686 19.022941 84.302615)" fill="#291806" stroke-width="0"/><polygon points="-0.031124,-0.523599 1.515135,-0.197911 0.31074,1.924118 -1.500407,2.065134 -1.293246,-0.27407 -0.031124,-0.523599" transform="matrix(-.869686 0.493606-.493606-.869686 16.781758 82.432678)" fill="#291806" stroke-width="0"/></g><g transform="translate(67.821346 7.34943)"><polygon points="1.413359,0.507316 1.587893,1.54639 0.061533,3.149474 -1.500407,2.065134 -1.293246,-0.27407 1.413359,0.507316" transform="matrix(-.088872 0.529095-.529095-.088872 17.427831 84.669965)" fill="#291806" stroke-width="0"/><polygon points="0.337536,0.053587 0.341955,1.018234 -0.442857,1.428564 -1.500407,2.065134 -1.293246,-0.27407 0.337536,0.053587" transform="matrix(-.869686 0.493606-.493606-.869686 19.022941 84.302615)" fill="#291806" stroke-width="0"/><polygon points="-0.031124,-0.523599 1.515135,-0.197911 0.31074,1.924118 -1.500407,2.065134 -1.293246,-0.27407 -0.031124,-0.523599" transform="matrix(-.869686 0.493606-.493606-.869686 16.781758 82.432678)" fill="#291806" stroke-width="0"/></g><g transform="translate(-8.97718 4.778923)"><polygon points="1.413359,0.507316 1.587893,1.54639 0.061533,3.149474 -1.500407,2.065134 -1.293246,-0.27407 1.413359,0.507316" transform="matrix(-.088872 0.529095-.529095-.088872 17.427831 84.669965)" fill="#291806" stroke-width="0"/><polygon points="0.337536,0.053587 0.341955,1.018234 -0.442857,1.428564 -1.500407,2.065134 -1.293246,-0.27407 0.337536,0.053587" transform="matrix(-.869686 0.493606-.493606-.869686 19.022941 84.302615)" fill="#291806" stroke-width="0"/><polygon points="-0.031124,-0.523599 1.515135,-0.197911 0.31074,1.924118 -1.500407,2.065134 -1.293246,-0.27407 -0.031124,-0.523599" transform="matrix(-.869686 0.493606-.493606-.869686 16.781758 82.432678)" fill="#291806" stroke-width="0"/></g></g></svg>
